<svg width="800" height="500" viewBox="0 0 800 500" xmlns="http://www.w3.org/2000/svg" font-family="sans-serif" font-size="12">
  <style>
    .actor { fill: #f0f8ff; stroke: #87ceeb; stroke-width: 1; }
    .arrow { marker-end: url(#arrowhead); stroke: #333; stroke-width: 1.5; }
    .dashed-arrow { marker-end: url(#arrowhead); stroke: #333; stroke-width: 1.5; stroke-dasharray: 4 4; }
    .label { text-anchor: middle; }
  </style>
  <defs>
    <marker id="arrowhead" viewBox="0 0 10 10" refX="8" refY="5" markerWidth="6" markerHeight="6" orient="auto-start-reverse">
      <path d="M 0 0 L 10 5 L 0 10 z" fill="#333" />
    </marker>
  </defs>

  <!-- Participants -->
  <g id="participants">
    <rect x="20" y="20" width="120" height="40" class="actor" rx="5"/>
    <text x="80" y="45" class="label">클라이언트 (React)</text>
    <line x1="80" y1="60" x2="80" y2="480" stroke="#333"/>

    <rect x="180" y="20" width="120" height="40" class="actor" rx="5"/>
    <text x="240" y="45" class="label">API Gateway</text>
    <line x1="240" y1="60" x2="240" y2="480" stroke="#333"/>

    <rect x="340" y="20" width="120" height="40" class="actor" rx="5"/>
    <text x="400" y="45" class="label">Cognito Authorizer</text>
    <line x1="400" y1="60" x2="400" y2="480" stroke="#333"/>
    
    <rect x="500" y="20" width="120" height="40" class="actor" rx="5"/>
    <text x="560" y="45" class="label">백엔드 Lambda</text>
    <line x1="560" y1="60" x2="560" y2="480" stroke="#333"/>

    <rect x="660" y="20" width="120" height="40" class="actor" rx="5"/>
    <text x="720" y="45" class="label">DynamoDB</text>
    <line x1="720" y1="60" x2="720" y2="480" stroke="#333"/>
  </g>

  <!-- Messages -->
  <g id="messages">
    <!-- 1. Client -> APIGW -->
    <path d="M 85 100 H 235" class="arrow"/>
    <text x="160" y="95" class="label">GET /todos (JWT)</text>

    <!-- 2. APIGW -> Authorizer -->
    <path d="M 245 140 H 395" class="arrow"/>
    <text x="320" y="135" class="label">JWT 토큰 검증 요청</text>

    <!-- 3. Authorizer -> Cognito (Not in diagram, implied) -->
    <!-- 4. Cognito -> Authorizer -->
    <path d="M 395 180 H 245" class="dashed-arrow"/>
    <text x="320" y="175" class="label">검증 완료 (성공)</text>
    
    <!-- 5. Authorizer -> APIGW -->
    <!-- This is combined with the above conceptually -->

    <!-- 6. APIGW -> Lambda -->
    <path d="M 245 220 H 555" class="arrow"/>
    <text x="400" y="215" class="label">할 일 목록 조회 요청</text>

    <!-- 7. Lambda -> DB -->
    <path d="M 565 260 H 715" class="arrow"/>
    <text x="640" y="255" class="label">query(userId)</text>

    <!-- 8. DB -> Lambda -->
    <path d="M 715 300 H 565" class="dashed-arrow"/>
    <text x="640" y="295" class="label">할 일 목록 데이터</text>
    
    <!-- 9. Lambda -> APIGW -->
    <path d="M 555 340 H 245" class="dashed-arrow"/>
    <text x="400" y="335" class="label">JSON 응답</text>

    <!-- 10. APIGW -> Client -->
    <path d="M 235 380 H 85" class="dashed-arrow"/>
    <text x="160" y="375" class="label">200 OK, 할 일 목록(JSON)</text>
  </g>
</svg>
